<svg width="20" height="22" viewBox="0 0 20 22" xmlns="http://www.w3.org/2000/svg">
<path d="M6.125 4.33333C6.125 4.60948 6.34886 4.83333 6.625 4.83333C6.90114 4.83333 7.125 4.60948 7.125 4.33333H6.125ZM7.125 1C7.125 0.723858 6.90114 0.5 6.625 0.5C6.34886 0.5 6.125 0.723858 6.125 1H7.125ZM12.875 4.33333C12.875 4.60948 13.0989 4.83333 13.375 4.83333C13.6511 4.83333 13.875 4.60948 13.875 4.33333H12.875ZM13.875 1C13.875 0.723858 13.6511 0.5 13.375 0.5C13.0989 0.5 12.875 0.723858 12.875 1H13.875ZM2.125 3.72222H17.875V2.72222H2.125V3.72222ZM18.5 4.33333V19.8889H19.5V4.33333H18.5ZM17.875 20.5H2.125V21.5H17.875V20.5ZM1.5 19.8889V4.33333H0.5V19.8889H1.5ZM2.125 20.5C1.77395 20.5 1.5 20.2206 1.5 19.8889H0.5C0.5 20.7845 1.23341 21.5 2.125 21.5V20.5ZM18.5 19.8889C18.5 20.2206 18.2261 20.5 17.875 20.5V21.5C18.7666 21.5 19.5 20.7845 19.5 19.8889H18.5ZM17.875 3.72222C18.2261 3.72222 18.5 4.00166 18.5 4.33333H19.5C19.5 3.4377 18.7666 2.72222 17.875 2.72222V3.72222ZM2.125 2.72222C1.23341 2.72222 0.5 3.4377 0.5 4.33333H1.5C1.5 4.00166 1.77395 3.72222 2.125 3.72222V2.72222ZM5.5 12.7222C5.14895 12.7222 4.875 12.4428 4.875 12.1111H3.875C3.875 13.0067 4.60841 13.7222 5.5 13.7222V12.7222ZM6.125 12.1111C6.125 12.4428 5.85105 12.7222 5.5 12.7222V13.7222C6.39159 13.7222 7.125 13.0067 7.125 12.1111H6.125ZM5.5 11.5C5.85105 11.5 6.125 11.7794 6.125 12.1111H7.125C7.125 11.2155 6.39159 10.5 5.5 10.5V11.5ZM5.5 10.5C4.60841 10.5 3.875 11.2155 3.875 12.1111H4.875C4.875 11.7794 5.14895 11.5 5.5 11.5V10.5ZM5.5 17.1667C5.14895 17.1667 4.875 16.8872 4.875 16.5556H3.875C3.875 17.4512 4.60841 18.1667 5.5 18.1667V17.1667ZM6.125 16.5556C6.125 16.8872 5.85105 17.1667 5.5 17.1667V18.1667C6.39159 18.1667 7.125 17.4512 7.125 16.5556H6.125ZM5.5 15.9444C5.85105 15.9444 6.125 16.2239 6.125 16.5556H7.125C7.125 15.6599 6.39159 14.9444 5.5 14.9444V15.9444ZM5.5 14.9444C4.60841 14.9444 3.875 15.6599 3.875 16.5556H4.875C4.875 16.2239 5.14895 15.9444 5.5 15.9444V14.9444ZM10 12.7222C9.64895 12.7222 9.375 12.4428 9.375 12.1111H8.375C8.375 13.0067 9.10841 13.7222 10 13.7222V12.7222ZM10.625 12.1111C10.625 12.4428 10.3511 12.7222 10 12.7222V13.7222C10.8916 13.7222 11.625 13.0067 11.625 12.1111H10.625ZM10 11.5C10.3511 11.5 10.625 11.7794 10.625 12.1111H11.625C11.625 11.2155 10.8916 10.5 10 10.5V11.5ZM10 10.5C9.10841 10.5 8.375 11.2155 8.375 12.1111H9.375C9.375 11.7794 9.64895 11.5 10 11.5V10.5ZM10 17.1667C9.64895 17.1667 9.375 16.8872 9.375 16.5556H8.375C8.375 17.4512 9.10841 18.1667 10 18.1667V17.1667ZM10.625 16.5556C10.625 16.8872 10.3511 17.1667 10 17.1667V18.1667C10.8916 18.1667 11.625 17.4512 11.625 16.5556H10.625ZM10 15.9444C10.3511 15.9444 10.625 16.2239 10.625 16.5556H11.625C11.625 15.6599 10.8916 14.9444 10 14.9444V15.9444ZM10 14.9444C9.10841 14.9444 8.375 15.6599 8.375 16.5556H9.375C9.375 16.2239 9.64895 15.9444 10 15.9444V14.9444ZM14.5 12.7222C14.1489 12.7222 13.875 12.4428 13.875 12.1111H12.875C12.875 13.0067 13.6084 13.7222 14.5 13.7222V12.7222ZM15.125 12.1111C15.125 12.4428 14.8511 12.7222 14.5 12.7222V13.7222C15.3916 13.7222 16.125 13.0067 16.125 12.1111H15.125ZM14.5 11.5C14.8511 11.5 15.125 11.7794 15.125 12.1111H16.125C16.125 11.2155 15.3916 10.5 14.5 10.5V11.5ZM14.5 10.5C13.6084 10.5 12.875 11.2155 12.875 12.1111H13.875C13.875 11.7794 14.1489 11.5 14.5 11.5V10.5ZM14.5 17.1667C14.1489 17.1667 13.875 16.8872 13.875 16.5556H12.875C12.875 17.4512 13.6084 18.1667 14.5 18.1667V17.1667ZM15.125 16.5556C15.125 16.8872 14.8511 17.1667 14.5 17.1667V18.1667C15.3916 18.1667 16.125 17.4512 16.125 16.5556H15.125ZM14.5 15.9444C14.8511 15.9444 15.125 16.2239 15.125 16.5556H16.125C16.125 15.6599 15.3916 14.9444 14.5 14.9444V15.9444ZM14.5 14.9444C13.6084 14.9444 12.875 15.6599 12.875 16.5556H13.875C13.875 16.2239 14.1489 15.9444 14.5 15.9444V14.9444ZM1 8.16667L19 8.16667V7.16667L1 7.16667L1 8.16667ZM7.125 4.33333V1H6.125V4.33333H7.125ZM13.875 4.33333V1H12.875V4.33333H13.875Z"/>
</svg>
